#!OML:ASF X:\für Bonn\!DataBase\2005_08_12_Daniel\c3d\Daniel.ASF
:FULLY-SPECIFIED
:DEGREES
92
root 0.23241 13.3774 -1.63513 168.205 -1.95964 -180.865
lowerback 66.7748 -3.7942 18.3364
upperback 12.333 -1.85365 -1.27754
thorax -6.52153 -4.05241 -7.66971
lowerneck 5.69224 -5.26328 -4.20013
upperneck 7.13307 -7.745 1.72419
head 1.51622 -4.0903 1.24998
rclavicle 1.27222e-014 7.15625e-015
rhumerus 24.9365 -18.4686 -80.872
rradius 11.6654
rwrist 36.2937
rhand -31.204 11.6371
rfingers 7.12502
rthumb -4.48012 -18.2955
lclavicle 1.27222e-014 7.15625e-015
lhumerus -31.2423 -7.57054 91.4201
lradius 87.739
lwrist -0.298511
lhand -11.8035 -7.80123
lfingers 7.12502
lthumb 14.2464 21.6901
rfemur -49.7543 -15.9715 17.0958
rtibia 94.9302
rfoot -27.9846 13.8754
rtoes -4.44177
lfemur -51.7561 10.1873 -22.0104
ltibia 96.5667
lfoot -33.3628 -5.7911
ltoes -5.06005
93
root 0.226287 13.249 -1.66383 168.064 -2.16189 -181.06
lowerback 67.2655 -3.95163 18.4446
upperback 12.2453 -1.89668 -1.27095
thorax -6.59338 -4.09286 -7.65208
lowerneck 5.73314 -5.38291 -4.26714
upperneck 7.16614 -7.9161 1.68647
head 1.52702 -4.17948 1.24935
rclavicle 3.65764e-014 2.38542e-014
rhumerus 24.6079 -17.5161 -79.632
rradius 11.8532
rwrist 35.3414
rhand -30.8866 11.3006
rfingers 7.12502
rthumb -4.17361 -18.6382
lclavicle 3.65764e-014 2.38542e-014
lhumerus -31.1573 -7.98914 91.5751
lradius 88.6963
lwrist -0.625672
lhand -12.6284 -7.6532
lfingers 7.12502
lthumb 13.4514 21.8925
rfemur -50.6702 -16.4849 16.6133
rtibia 96.6568
rfoot -27.799 14.4221
rtoes -4.09096
lfemur -52.4619 10.4713 -22.2287
ltibia 97.9289
lfoot -33.7035 -6.34462
ltoes -4.46804
94
root 0.22115 13.1217 -1.69329 167.895 -2.36519 -181.238
lowerback 67.7759 -4.12873 18.5746
upperback 12.1359 -1.93299 -1.27397
thorax -6.68429 -4.12932 -7.65397
lowerneck 5.78694 -5.49347 -4.34942
upperneck 7.21549 -8.07936 1.68777
head 1.54329 -4.26517 1.26378
rclavicle -3.02153e-014 -4.77083e-014
rhumerus 24.1781 -16.4349 -78.3043
rradius 12.0884
rwrist 34.309
rhand -30.5379 10.944
rfingers 7.12502
rthumb -3.83686 -19.0012
lclavicle -3.02153e-014 -4.77083e-014
lhumerus -31.1061 -8.43583 91.748
lradius 89.6228
lwrist -1.03338
lhand -13.4935 -7.42205
lfingers 7.12502
lthumb 12.6175 22.1769
rfemur -51.5565 -16.996 16.1272
rtibia 98.3665
rfoot -27.5016 14.9795
rtoes -3.74119
lfemur -53.1332 10.7684 -22.4198
ltibia 99.2678
lfoot -34.0074 -6.88443
ltoes -3.91264
95
root 0.216214 12.9961 -1.7225 167.714 -2.57343 -181.385
lowerback 68.2792 -4.31324 18.7069
upperback 12.0331 -1.98132 -1.25815
thorax -6.76536 -4.17503 -7.6296
lowerneck 5.72232 -5.60002 -4.44784
upperneck 7.3592 -8.23558 1.64332
head 1.60827 -4.34939 1.26083
rclavicle 1.28812e-013 1.19271e-014
rhumerus 23.7878 -15.3947 -77.0621
rradius 12.3154
rwrist 33.5125
rhand -30.1333 10.5597
rfingers 7.12502
rthumb -3.44621 -19.3921
lclavicle 1.28812e-013 1.19271e-014
lhumerus -31.0202 -8.87549 91.9162
lradius 90.5173
lwrist -1.56705
lhand -14.4443 -7.16191
lfingers 7.12502
lthumb 11.7007 22.4913
rfemur -52.3963 -17.5255 15.6326
rtibia 100.039
rfoot -27.1561 15.6389
rtoes -3.27461
lfemur -53.7729 11.0645 -22.5609
ltibia 100.583
lfoot -34.2604 -7.47948
ltoes -3.29566
96
root 0.212839 12.8735 -1.75084 167.512 -2.79381 -181.54
lowerback 68.801 -4.50158 18.8403
upperback 11.9199 -2.0234 -1.2394
thorax -6.854 -4.21892 -7.6028
lowerneck 5.62819 -5.72477 -4.54676
upperneck 7.51698 -8.41456 1.57434
head 1.68263 -4.44546 1.24853
rclavicle 7.4743e-014 -2.38542e-015
rhumerus 23.4971 -14.7292 -76.0344
rradius 12.4424
rwrist 33.186
rhand -29.7352 10.1888
rfingers 7.12502
rthumb -3.06171 -19.7689
lclavicle 7.4743e-014 -2.38542e-015
lhumerus -30.9398 -9.31134 92.0762
lradius 91.3775
lwrist -2.22526
lhand -15.3111 -6.95731
lfingers 7.12502
lthumb 10.8647 22.7416
rfemur -53.1975 -18.0426 15.0917
rtibia 101.668
rfoot -26.7302 16.3952
rtoes -2.7669
lfemur -54.3727 11.3824 -22.6886
ltibia 101.868
lfoot -34.4776 -8.09991
ltoes -2.74379
97
root 0.211165 12.7514 -1.77935 167.298 -3.00901 -181.639
lowerback 69.3338 -4.70777 19.0087
upperback 11.7991 -2.05623 -1.21781
thorax -6.94219 -4.25961 -7.58812
lowerneck 5.51386 -5.83121 -4.63938
upperneck 7.68019 -8.56723 1.52422
head 1.76222 -4.52776 1.24019
rclavicle 5.40694e-014 -5.88403e-014
rhumerus 23.2534 -14.1928 -75.1388
rradius 12.5498
rwrist 33.0625
rhand -29.3385 9.84227
rfingers 7.12502
rthumb -2.67863 -20.1207
lclavicle 5.40694e-014 -5.88403e-014
lhumerus -30.8643 -9.79758 92.2319
lradius 92.2471
lwrist -2.88675
lhand -16.1984 -6.66038
lfingers 7.12502
lthumb 10.0088 23.0816
rfemur -53.9686 -18.5591 14.5836
rtibia 103.259
rfoot -26.2832 17.1875
rtoes -2.19562
lfemur -54.9745 11.7534 -22.7432
ltibia 103.146
lfoot -34.6368 -8.75243
ltoes -2.32007
98
root 0.209629 12.6319 -1.80875 167.096 -3.23312 -181.768
lowerback 69.8499 -4.91191 19.1615
upperback 11.6756 -2.09113 -1.20045
thorax -7.03468 -4.29904 -7.5718
lowerneck 5.33248 -5.95023 -4.78786
upperneck 7.90841 -8.73985 1.47737
head 1.87853 -4.62259 1.23811
rclavicle -4.13472e-014 7.15625e-015
rhumerus 23.0452 -13.8599 -74.3596
rradius 12.5731
rwrist 33.2309
rhand -28.9198 9.49907
rfingers 7.12502
rthumb -2.27421 -20.4686
lclavicle -4.13472e-014 7.15625e-015
lhumerus -30.7909 -10.2983 92.3756
lradius 93.0533
lwrist -3.69007
lhand -17.0536 -6.54315
lfingers 7.12502
lthumb 9.1836 23.2369
rfemur -54.7028 -19.0875 14.0131
rtibia 104.786
rfoot -25.8425 18.0592
rtoes -1.6246
lfemur -55.5543 12.0916 -22.8159
ltibia 104.4
lfoot -34.756 -9.4225
ltoes -1.74849
99
root 0.209923 12.5132 -1.83831 166.867 -3.46773 -181.854
lowerback 70.381 -5.12298 19.3193
upperback 11.5558 -2.13348 -1.15579
thorax -7.11756 -4.34862 -7.52041
lowerneck 5.06143 -6.04332 -4.97098
upperneck 8.17859 -8.87472 1.45153
head 2.02644 -4.69925 1.24438
rclavicle -1.90833e-014 3.97569e-015
rhumerus 22.9702 -13.7913 -73.8007
rradius 12.5382
rwrist 33.7595
rhand -28.5234 9.20448
rfingers 7.12502
rthumb -1.89139 -20.7669
lclavicle -1.90833e-014 3.97569e-015
lhumerus -30.7317 -10.7436 92.5213
lradius 93.8926
lwrist -4.46578
lhand -17.7643 -6.42185
lfingers 7.12502
lthumb 8.49781 23.3872
rfemur -55.364 -19.6227 13.4853
rtibia 106.259
rfoot -25.4878 18.856
rtoes -1.31168
lfemur -56.1226 12.4701 -22.8296
ltibia 105.655
lfoot -34.8626 -10.1156
ltoes -1.417
100
root 0.210885 12.3934 -1.86984 166.624 -3.71517 -181.922
lowerback 70.8784 -5.35106 19.5013
upperback 11.4361 -2.17474 -1.11876
thorax -7.19726 -4.39407 -7.48836
lowerneck 4.86888 -6.14152 -5.13601
upperneck 8.42191 -9.01993 1.43176
head 2.15295 -4.7812 1.2522
rclavicle -3.65764e-014 -2.14687e-014
rhumerus 22.8098 -13.5873 -73.1749
rradius 12.5036
rwrist 34.0203
rhand -28.1788 8.92934
rfingers 7.12502
rthumb -1.55857 -21.0447
lclavicle -3.65764e-014 -2.14687e-014
lhumerus -30.7338 -11.2431 92.6505
lradius 94.7364
lwrist -5.17312
lhand -18.4762 -6.38961
lfingers 7.12502
lthumb 7.8107 23.4461
rfemur -55.952 -20.1996 12.9273
rtibia 107.677
rfoot -25.0254 19.7751
rtoes -0.620261
lfemur -56.6811 12.8534 -22.803
ltibia 106.925
lfoot -34.9731 -10.8324
ltoes -1.11126
101
root 0.213825 12.2725 -1.9026 166.373 -4.00775 -181.976
lowerback 71.3126 -5.58802 19.7034
upperback 11.3566 -2.23302 -1.05886
thorax -7.22971 -4.4472 -7.43462
lowerneck 4.65452 -6.23384 -5.34468
upperneck 8.63827 -9.15552 1.45363
head 2.27983 -4.85767 1.27998
rclavicle 3.65764e-014 -1.11319e-014
rhumerus 22.6613 -13.1849 -72.4484
rradius 12.4882
rwrist 33.9544
rhand -27.7532 8.6648
rfingers 7.12502
rthumb -1.14757 -21.3119
lclavicle 3.65764e-014 -1.11319e-014
lhumerus -30.6808 -11.7594 92.7779
lradius 95.551
lwrist -5.86601
lhand -19.1234 -6.42991
lfingers 7.12502
lthumb 7.18604 23.4281
rfemur -56.4869 -20.8288 12.3418
rtibia 109.055
rfoot -24.5007 20.7386
rtoes 0.0544931
lfemur -57.2391 13.2278 -22.7572
ltibia 108.198
lfoot -35.0231 -11.6082
ltoes -0.789625
102
root 0.21713 12.1531 -1.93636 166.095 -4.32212 -181.988
lowerback 71.7374 -5.85831 19.9463
upperback 11.2595 -2.28571 -0.998722
thorax -7.27453 -4.49649 -7.39573
lowerneck 4.53118 -6.33008 -5.56262
upperneck 8.85073 -9.30574 1.49376
head 2.39285 -4.94303 1.31794
rclavicle -4.6118e-014 5.56597e-015
rhumerus 22.4947 -12.9696 -71.8518
rradius 12.4436
rwrist 34.0591
rhand -27.4178 8.38381
rfingers 7.12502
rthumb -0.823631 -21.5943
lclavicle -4.6118e-014 5.56597e-015
lhumerus -30.6897 -12.2835 92.922
lradius 96.3566
lwrist -6.46383
lhand -19.7669 -6.54121
lfingers 7.12502
lthumb 6.56481 23.337
rfemur -56.9324 -21.5314 11.7569
rtibia 110.395
rfoot -23.9881 21.7299
rtoes 0.649663
lfemur -57.777 13.6003 -22.6453
ltibia 109.464
lfoot -35.0348 -12.4064
ltoes -0.387089
103
root 0.222326 12.0337 -1.97126 165.793 -4.66279 -182.022
lowerback 72.1392 -6.12082 20.1514
upperback 11.184 -2.37013 -0.933933
thorax -7.30307 -4.56165 -7.32526
lowerneck 4.50062 -6.40261 -5.73777
upperneck 8.99447 -9.42385 1.51107
head 2.46235 -5.01143 1.34656
rclavicle -5.88403e-014 -7.15625e-015
rhumerus 22.3826 -12.7857 -71.335
rradius 12.347
rwrist 34.1196
rhand -27.0399 8.23867
rfingers 7.12502
rthumb -0.458582 -21.7406
lclavicle -5.88403e-014 -7.15625e-015
lhumerus -30.6812 -12.7891 93.012
lradius 97.1147
lwrist -6.92502
lhand -20.4201 -6.73118
lfingers 7.12502
lthumb 5.93419 23.1657
rfemur -57.3171 -22.2941 11.1028
rtibia 111.709
rfoot -23.4495 22.7799
rtoes 1.34238
lfemur -58.2641 13.981 -22.5491
ltibia 110.714
lfoot -35.0505 -13.2175
ltoes 0.0225802
104
root 0.227707 11.914 -2.00703 165.478 -5.02331 -182.034
lowerback 72.484 -6.39544 20.4009
upperback 11.1443 -2.45567 -0.85563
thorax -7.28489 -4.62592 -7.25936
lowerneck 4.47894 -6.48888 -5.90801
upperneck 9.11829 -9.55971 1.52941
head 2.52467 -5.08797 1.37491
rclavicle -1.74931e-014 -3.65764e-014
rhumerus 22.2116 -12.3991 -70.6997
rradius 12.3058
rwrist 33.8022
rhand -26.7502 8.00081
rfingers 7.12502
rthumb -0.178802 -21.9789
lclavicle -1.74931e-014 -3.65764e-014
lhumerus -30.6218 -13.2851 93.1363
lradius 97.8198
lwrist -7.44032
lhand -21.0285 -6.9326
lfingers 7.12502
lthumb 5.3468 22.9799
rfemur -57.6443 -23.1181 10.4102
rtibia 113.005
rfoot -22.9061 23.9027
rtoes 1.79422
lfemur -58.737 14.3553 -22.4152
ltibia 111.946
lfoot -34.9856 -14.0719
ltoes 0.554799
105
root 0.233882 11.7945 -2.04308 165.153 -5.40256 -182.045
lowerback 72.791 -6.649 20.6139
upperback 11.1104 -2.54773 -0.746993
thorax -7.26527 -4.6972 -7.14299
lowerneck 4.506 -6.55139 -6.14633
upperneck 9.21838 -9.67069 1.571
head 2.57531 -5.15463 1.42489
rclavicle 6.52014e-014 4.21423e-014
rhumerus 22.0146 -11.8503 -70.0019
rradius 12.2926
rwrist 33.3325
rhand -26.442 7.81146
rfingers 7.12502
rthumb 0.1188 -22.1682
lclavicle 6.52014e-014 4.21423e-014
lhumerus -30.5787 -13.7446 93.2498
lradius 98.5014
lwrist -7.80936
lhand -21.5615 -7.15248
lfingers 7.12502
lthumb 4.83222 22.7724
rfemur -57.9153 -24.0154 9.6849
rtibia 114.259
rfoot -22.4247 25.0578
rtoes 1.95555
lfemur -59.211 14.7541 -22.2697
ltibia 113.173
lfoot -34.9438 -14.9501
ltoes 0.832009
106
root 0.240423 11.6756 -2.07956 164.802 -5.77372 -182.063
lowerback 73.0785 -6.87761 20.8164
upperback 11.0865 -2.62409 -0.634521
thorax -7.23377 -4.76177 -7.02678
lowerneck 4.43842 -6.62771 -6.35729
upperneck 9.39231 -9.79503 1.5881
head 2.66561 -5.22832 1.45681
rclavicle 0 1.90833e-014
rhumerus 21.8185 -11.5951 -69.4644
rradius 12.2603
rwrist 33.1376
rhand -26.1394 7.58873
rfingers 7.12502
rthumb 0.411091 -22.3906
lclavicle 0 1.90833e-014
lhumerus -30.5874 -14.2502 93.3703
lradius 99.1908
lwrist -8.12543
lhand -22.1697 -7.26402
lfingers 7.12502
lthumb 4.24493 22.6734
rfemur -58.11 -24.9368 8.8858
rtibia 115.493
rfoot -21.9265 26.2876
rtoes 2.00373
lfemur -59.6381 15.193 -22.1072
ltibia 114.382
lfoot -34.843 -15.8287
ltoes 1.28457
